<svg width="27" height="33" viewBox="0 0 27 33" fill="none" xmlns="http://www.w3.org/2000/svg">
<g clip-path="url(#clip0_105_2535)">
<path d="M13.8626 19.8639C17.3555 19.8639 20.196 17.0234 20.196 13.5306C20.196 10.0378 17.3555 7.19727 13.8626 7.19727C10.3698 7.19727 7.5293 10.0378 7.5293 13.5306C7.5293 17.0234 10.3698 19.8639 13.8626 19.8639ZM13.8626 10.3639C15.609 10.3639 17.0293 11.7842 17.0293 13.5306C17.0293 15.277 15.609 16.6973 13.8626 16.6973C12.1162 16.6973 10.696 15.277 10.696 13.5306C10.696 11.7842 12.1162 10.3639 13.8626 10.3639Z" fill="#EF2779"/>
<path d="M12.6118 32.2359C12.8797 32.4273 13.2008 32.5302 13.5301 32.5302C13.8594 32.5302 14.1804 32.4273 14.4484 32.2359C14.9298 31.8955 26.2427 23.7271 26.1968 13.5304C26.1968 6.54635 20.5142 0.86377 13.5301 0.86377C6.546 0.86377 0.863421 6.54635 0.863421 13.5225C0.817504 23.7271 12.1304 31.8955 12.6118 32.2359ZM13.5301 4.03044C18.7693 4.03044 23.0301 8.29119 23.0301 13.5384C23.0633 20.5652 16.0824 26.8748 13.5301 28.9442C10.9793 26.8732 3.99684 20.562 4.03009 13.5304C4.03009 8.29119 8.29084 4.03044 13.5301 4.03044Z" fill="#EF2779"/>
</g>
<defs>
<clipPath id="clip0_105_2535">
<rect width="26" height="32" fill="white" transform="translate(0.863281 0.697266)"/>
</clipPath>
</defs>
</svg>
