<svg width="42" height="42" viewBox="0 0 42 42" fill="none" xmlns="http://www.w3.org/2000/svg">
<path d="M36.0739 5.18018H6.61482C5.90636 5.18018 5.33398 5.75255 5.33398 6.46101V35.9201C5.33398 36.6286 5.90636 37.201 6.61482 37.201H36.0739C36.7824 37.201 37.3548 36.6286 37.3548 35.9201V6.46101C37.3548 5.75255 36.7824 5.18018 36.0739 5.18018ZM32.3755 14.5262H29.8179C27.8126 14.5262 27.4243 15.4789 27.4243 16.8798V19.9658H32.2114L31.587 24.7969H27.4243V37.201H22.4331V24.8009H18.2584V19.9658H22.4331V16.4035C22.4331 12.2688 24.9587 10.0153 28.6491 10.0153C30.4183 10.0153 31.9352 10.1474 32.3795 10.2074V14.5262H32.3755Z" fill="#EF2779"/>
</svg>
