<svg width="44" height="44" viewBox="0 0 44 44" fill="none" xmlns="http://www.w3.org/2000/svg">
<rect x="0.5" y="0.5" width="43" height="43" rx="21.5" fill="#EF2779"/>
<path d="M18.0946 23.2387L20.7258 20.6075L14.9706 14.8616C14.5243 14.4153 13.7526 14.5362 13.4737 15.1127C12.8136 16.498 13.0553 18.1994 14.1989 19.3523L18.0946 23.2387ZM24.3984 21.5559C25.8209 22.216 27.8199 21.7511 29.2982 20.2728C31.074 18.497 31.418 15.9494 30.0513 14.5827C28.6938 13.2253 26.1463 13.56 24.3612 15.3358C22.8829 16.8141 22.418 18.8131 23.0781 20.2356L14.6545 28.6592C14.4807 28.833 14.383 29.0688 14.383 29.3147C14.383 29.5605 14.4807 29.7963 14.6545 29.9702C14.8284 30.144 15.0641 30.2417 15.31 30.2417C15.5558 30.2417 15.7916 30.144 15.9655 29.9702L21.7207 24.2336L27.4666 29.9795C27.5526 30.0655 27.6548 30.1338 27.7673 30.1804C27.8798 30.227 28.0003 30.251 28.122 30.251C28.2438 30.251 28.3643 30.227 28.4768 30.1804C28.5892 30.1338 28.6914 30.0655 28.7775 29.9795C28.8636 29.8934 28.9319 29.7912 28.9785 29.6787C29.025 29.5663 29.049 29.4457 29.049 29.324C29.049 29.2022 29.025 29.0817 28.9785 28.9692C28.9319 28.8568 28.8636 28.7546 28.7775 28.6685L23.0316 22.9226L24.3984 21.5559Z" fill="white"/>
</svg>
