<svg width="28" height="23" viewBox="0 0 28 23" fill="none" xmlns="http://www.w3.org/2000/svg">
<g clip-path="url(#clip0_105_2547)">
<path d="M26.1758 1.38477H1.80078C1.28223 1.38477 0.863281 1.80371 0.863281 2.32227V21.0723C0.863281 21.5908 1.28223 22.0098 1.80078 22.0098H26.1758C26.6943 22.0098 27.1133 21.5908 27.1133 21.0723V2.32227C27.1133 1.80371 26.6943 1.38477 26.1758 1.38477ZM25.0039 4.63086V19.9004H2.97266V4.63086L2.16406 4.00098L3.31543 2.52148L4.56934 3.49707H23.4102L24.6641 2.52148L25.8154 4.00098L25.0039 4.63086ZM23.4102 3.49414L13.9883 10.8184L4.56641 3.49414L3.3125 2.51855L2.16113 3.99805L2.96973 4.62793L12.9775 12.4092C13.2653 12.6328 13.6194 12.7542 13.9839 12.7542C14.3483 12.7542 14.7024 12.6328 14.9902 12.4092L25.0039 4.63086L25.8125 4.00098L24.6611 2.52148L23.4102 3.49414Z" fill="#EF2779"/>
</g>
<defs>
<clipPath id="clip0_105_2547">
<rect width="27" height="22" fill="white" transform="translate(0.863281 0.697266)"/>
</clipPath>
</defs>
</svg>
