<svg width="42" height="42" viewBox="0 0 42 42" fill="none" xmlns="http://www.w3.org/2000/svg">
<path d="M36.0603 5.18018H6.60114C5.89268 5.18018 5.32031 5.75255 5.32031 6.46101V35.9201C5.32031 36.6286 5.89268 37.201 6.60114 37.201H36.0603C36.7687 37.201 37.3411 36.6286 37.3411 35.9201V6.46101C37.3411 5.75255 36.7687 5.18018 36.0603 5.18018ZM14.8185 32.4659H10.0674V17.184H14.8185V32.4659ZM12.4449 15.0946C11.9003 15.0946 11.3679 14.9331 10.915 14.6305C10.4622 14.3279 10.1092 13.8978 9.90077 13.3947C9.69234 12.8915 9.63781 12.3378 9.74406 11.8036C9.85032 11.2694 10.1126 10.7787 10.4977 10.3936C10.8828 10.0085 11.3735 9.7462 11.9077 9.63995C12.4419 9.53369 12.9956 9.58823 13.4988 9.79665C14.002 10.0051 14.432 10.358 14.7346 10.8109C15.0372 11.2638 15.1987 11.7962 15.1987 12.3408C15.1947 13.8618 13.9619 15.0946 12.4449 15.0946ZM32.606 32.4659H27.8589V25.0331C27.8589 23.2599 27.8269 20.9824 25.3893 20.9824C22.9197 20.9824 22.5395 22.9117 22.5395 24.905V32.4659H17.7964V17.184H22.3514V19.2733H22.4154C23.0478 18.0725 24.5968 16.8037 26.9103 16.8037C31.7214 16.8037 32.606 19.9698 32.606 24.0844V32.4659Z" fill="#EF2779"/>
</svg>
