<svg width="88" height="87" viewBox="0 0 88 87" fill="none" xmlns="http://www.w3.org/2000/svg">
<g clip-path="url(#clip0_105_2422)">
<path d="M19.553 0H68.447C78.9699 0 87.5 8.53008 87.5 19.053V67.947C87.5 78.4699 78.9699 87 68.447 87H19.553C9.03008 87 0.5 78.4699 0.5 67.947V19.053C0.5 8.53008 9.03008 0 19.553 0Z" fill="url(#paint0_linear_105_2422)"/>
<path d="M28.3818 63.1463L28.39 63.149L25.4153 68.3011C24.3295 70.1818 21.9248 70.8261 20.0441 69.7403C18.1637 68.6545 17.519 66.2498 18.6048 64.3691L20.7961 60.5737L21.0065 60.2094C21.382 59.6697 22.3088 58.7379 24.1626 58.9132C24.1626 58.9132 28.5252 59.3866 28.8409 61.6541C28.8409 61.6541 28.8838 62.4 28.3818 63.1463ZM70.571 49.9876H61.2953C60.6636 49.9451 60.388 49.7194 60.2792 49.5882L60.2724 49.5764L50.3432 32.3782L50.3303 32.3867L49.7349 31.533C48.7588 30.0404 47.2092 33.8576 47.2092 33.8576C45.3587 38.111 47.4719 42.9467 48.2083 44.4084L61.9998 68.296C63.0853 70.1763 65.49 70.821 67.3711 69.7349C69.2514 68.6491 69.8961 66.2443 68.81 64.3636L65.3616 58.3905C65.2946 58.2458 65.1784 57.8529 65.8856 57.8512H70.571C72.7426 57.8512 74.503 56.0908 74.503 53.9192C74.503 51.7476 72.7426 49.9872 70.571 49.9872V49.9876ZM52.5546 55.3326C52.5546 55.3326 53.0497 57.8512 51.134 57.8512H16.8441C14.6725 57.8512 12.9121 56.0908 12.9121 53.9192C12.9121 51.7476 14.6725 49.9872 16.8441 49.9872H25.6597C27.0829 49.905 27.42 49.0832 27.42 49.0832L27.4282 49.0873L38.9353 29.1562L38.9319 29.1555C39.1416 28.7704 38.9669 28.4065 38.9367 28.349L35.1362 21.7666C34.0504 19.8862 34.6947 17.4812 36.5754 16.3957C38.4561 15.3099 40.8609 15.9539 41.9467 17.8346L43.7091 20.8874L45.4685 17.84C46.5543 15.9597 48.959 15.315 50.8397 16.4011C52.7204 17.4869 53.3647 19.8913 52.2789 21.772L36.2662 49.5067C36.1962 49.6756 36.1748 49.9407 36.6957 49.9872H46.2671L46.2691 50.0807C46.2691 50.0807 51.8011 50.1667 52.5546 55.3326Z" fill="white"/>
</g>
<defs>
<linearGradient id="paint0_linear_105_2422" x1="44" y1="0" x2="44" y2="87" gradientUnits="userSpaceOnUse">
<stop stop-color="#17C9FB"/>
<stop offset="1" stop-color="#1A74E8"/>
</linearGradient>
<clipPath id="clip0_105_2422">
<rect width="87" height="87" fill="white" transform="translate(0.5)"/>
</clipPath>
</defs>
</svg>
