<svg width="42" height="42" viewBox="0 0 42 42" fill="none" xmlns="http://www.w3.org/2000/svg">
<path d="M38.0087 10.8757C36.7839 11.4041 35.4511 11.7843 34.0782 11.9324C35.5036 11.0856 36.571 9.74779 37.0801 8.16997C35.7426 8.96564 34.2773 9.52358 32.7493 9.81904C32.1107 9.1363 31.3383 8.5924 30.4803 8.22123C29.6222 7.85006 28.697 7.65957 27.7621 7.66164C23.9796 7.66164 20.9377 10.7276 20.9377 14.4901C20.9377 15.0184 21.0017 15.5468 21.1058 16.0551C15.4421 15.7589 10.3908 13.0531 7.03264 8.91045C6.42074 9.95559 6.10009 11.1456 6.10403 12.3567C6.10403 14.7262 7.30882 16.8156 9.14601 18.0444C8.06332 18.0017 7.00599 17.7041 6.06001 17.1758V17.2599C6.06001 20.578 8.40553 23.3278 11.5316 23.9602C10.9446 24.1127 10.3408 24.1907 9.73439 24.1924C9.2901 24.1924 8.86983 24.1483 8.44555 24.0883C9.31011 26.7941 11.8277 28.7593 14.8257 28.8234C12.4802 30.6606 9.54226 31.7413 6.3522 31.7413C5.77982 31.7413 5.25148 31.7213 4.70312 31.6572C7.72909 33.5985 11.3194 34.7192 15.1859 34.7192C27.7381 34.7192 34.6065 24.3204 34.6065 15.2946C34.6065 14.9984 34.6065 14.7022 34.5865 14.406C35.9154 13.4334 37.0801 12.2286 38.0087 10.8757Z" fill="#EF2779"/>
</svg>
