<?xml version="1.0" standalone="no"?>
<!DOCTYPE svg PUBLIC "-//W3C//DTD SVG 20010904//EN"
 "http://www.w3.org/TR/2001/REC-SVG-20010904/DTD/svg10.dtd">
<svg version="1.0" xmlns="http://www.w3.org/2000/svg"
 width="182.000000pt" height="182.000000pt" viewBox="0 0 182.000000 182.000000"
 preserveAspectRatio="xMidYMid meet">
<metadata>
Created by potrace 1.14, written by Peter Selinger 2001-2017
</metadata>
<g transform="translate(0.000000,182.000000) scale(0.100000,-0.100000)"
fill="#000000" stroke="none">
<path d="M275 1813 c-97 -24 -198 -103 -239 -187 l-26 -53 0 -659 0 -659 24
-50 c44 -95 156 -178 257 -192 70 -9 1158 -9 1224 1 124 17 231 101 277 216
l26 65 0 614 c0 576 -1 618 -19 669 -20 58 -55 111 -98 150 -38 33 -41 35 -96
62 l-50 25 -630 1 c-346 1 -639 0 -650 -3z"/>
</g>
</svg>
